<svg id="Layer_1" data-name="Layer 1" xmlns="http://www.w3.org/2000/svg" viewBox="0 0 107 31.56"><defs><style>.cls-1{fill:#9cd779;fill-rule:evenodd;}.cls-2{fill:#fff;stroke:#fff;stroke-miterlimit:10;stroke-width:0.75px;}</style></defs><title>Final Logo 4</title><path class="cls-1" d="M0,1H107V4H0Z" transform="translate(-0.01 -1)"/><path class="cls-2" d="M9.86,18.17a2.55,2.55,0,0,0-2-1,3,3,0,0,0-3.26,3.24,3,3,0,0,0,3.26,3.24,2.63,2.63,0,0,0,2-1l2.69,2.74a6.76,6.76,0,0,1-4.71,1.71C3.76,27.15.5,24.52.5,20.44s3.26-6.71,7.35-6.71a6.76,6.76,0,0,1,4.71,1.71Z" transform="translate(-0.01 -1)"/><path class="cls-2" d="M22.32,25.23h-.05a4.83,4.83,0,0,1-4.19,1.92c-2.48,0-4.71-1.37-4.71-3.95,0-4.42,5.55-4.5,9-4.5a2.4,2.4,0,0,0-2.61-2.29,4.42,4.42,0,0,0-3.32,1.53l-2.18-2.16A8.7,8.7,0,0,1,20,13.72c4.76,0,6,2.34,6,6.61v6.5H22.32Zm-1-4c-1.25,0-4,.11-4,1.84,0,.95,1,1.4,1.93,1.4,1.6,0,3.1-.82,3.1-2.4v-.84Z" transform="translate(-0.01 -1)"/><path class="cls-2" d="M29,14h3.75v1.69h.05a5.18,5.18,0,0,1,4.05-2,6.24,6.24,0,0,1,6.5,6.61c0,3.55-2.29,6.82-6,6.82a5,5,0,0,1-4.19-1.69H33.1v6.4H29Zm7,8.8a2.25,2.25,0,0,0,2.42-2.4,2.42,2.42,0,0,0-4.84,0A2.25,2.25,0,0,0,36,22.84Z" transform="translate(-0.01 -1)"/><path class="cls-2" d="M54.08,25.23H54a4.83,4.83,0,0,1-4.19,1.92c-2.48,0-4.71-1.37-4.71-3.95,0-4.42,5.55-4.5,9-4.5a2.4,2.4,0,0,0-2.61-2.29,4.42,4.42,0,0,0-3.32,1.53L46,15.78a8.7,8.7,0,0,1,5.82-2.05c4.76,0,6,2.34,6,6.61v6.5H54.08Zm-1-4c-1.25,0-4,.11-4,1.84,0,.95,1,1.4,1.93,1.4,1.6,0,3.1-.82,3.1-2.4v-.84Z" transform="translate(-0.01 -1)"/><path class="cls-2" d="M69.35,18.17a2.55,2.55,0,0,0-2-1,3,3,0,0,0-3.26,3.24,3,3,0,0,0,3.26,3.24,2.63,2.63,0,0,0,2-1L72,25.44a6.76,6.76,0,0,1-4.71,1.71c-4.08,0-7.35-2.63-7.35-6.71s3.26-6.71,7.35-6.71A6.76,6.76,0,0,1,72,15.43Z" transform="translate(-0.01 -1)"/><path class="cls-2" d="M75.61,8.4a2.29,2.29,0,1,1-2.37,2.29A2.33,2.33,0,0,1,75.61,8.4Zm-2,6.32h4.08V26.84H73.57Z" transform="translate(-0.01 -1)"/><path class="cls-2" d="M89.22,17.2H86v4.27c0,1.37.16,2.37,1.93,2.37a1.9,1.9,0,0,0,1.29-.37v3.29a6.64,6.64,0,0,1-2.49.39c-2.72,0-4.82-1.08-4.82-3.87V17.2H79.76V14h2.16V11.22H86V14h3.22Z" transform="translate(-0.01 -1)"/><path class="cls-2" d="M99.91,28.92c-1.09,2.71-2.48,3.27-5.6,3.27a9.94,9.94,0,0,1-3-.47l.54-3.24a6.13,6.13,0,0,0,1.9.39,2.82,2.82,0,0,0,2.72-1.19l.3-.74L90.93,14h4.41l3.4,8.45h.05L101.71,14h4.19Z" transform="translate(-0.01 -1)"/></svg>